<svg xmlns="http://www.w3.org/2000/svg" width="3001" height="3001" fill="none" viewBox="0 0 3001 3001" id="business-data"><g clip-path="url(#clip0_101_35646)"><path fill="#FAC22F" fill-rule="evenodd" d="M2510.54 1595.43C2780.99 1595.43 3000.23 1376.18 3000.23 1105.73C3000.23 835.281 2780.99 616.037 2510.54 616.037C2240.09 616.037 2020.84 835.281 2020.84 1105.73C2020.84 1376.18 2240.09 1595.43 2510.54 1595.43ZM2510.54 1313.48C2625.28 1313.48 2718.29 1220.47 2718.29 1105.73C2718.29 990.996 2625.28 897.983 2510.54 897.983C2395.8 897.983 2302.79 990.996 2302.79 1105.73C2302.79 1220.47 2395.8 1313.48 2510.54 1313.48Z" clip-rule="evenodd"></path><path fill="#F1F1F1" d="M774.343 682.813H1011.77V994.438H774.343V682.813Z"></path><path fill="#F15846" d="M2325.05 1973.83H2822.16V2619.34H2325.05V1973.83Z"></path><path fill="#F1F1F1" d="M158.515 1211.26C158.515 1165.27 195.794 1127.99 241.779 1127.99H1611.11C1657.1 1127.99 1694.38 1165.27 1694.38 1211.26V2046.38C1694.38 2092.36 1657.1 2129.64 1611.11 2129.64H241.779C195.793 2129.64 158.515 2092.36 158.515 2046.38V1211.26Z"></path><path fill="#3E3D3D" d="M1423.56 2819.67L1200.97 304.412H2317.63L2597.52 1394.36C2620.99 1485.75 2629.36 1580.36 2622.31 1674.45L2536.51 2819.67H2158.1L2124.72 1677.04L1942.93 1324.61L1798.25 2819.67H1423.56Z"></path><path fill="#3E3D3D" fill-rule="evenodd" d="M1988.33 857.899L1947.52 1325.34 1930.93 1323.89 1971.74 856.451 1988.33 857.899zM-5.62427 2819.67C-5.62427 2815.07-1.89638 2811.34 2.70221 2811.34H2952.01C2956.61 2811.34 2960.33 2815.07 2960.33 2819.67 2960.33 2824.27 2956.61 2828 2952.01 2828H2.70221C-1.89638 2828-5.62427 2824.27-5.62427 2819.67z" clip-rule="evenodd"></path><path fill="#53B3CC" d="M681.599 1396.75C681.599 1350.76 718.878 1313.48 764.864 1313.48H2134.2C2180.18 1313.48 2217.46 1350.76 2217.46 1396.75V2350.58C2217.46 2396.57 2180.18 2433.85 2134.2 2433.85H764.864C718.878 2433.85 681.599 2396.57 681.599 2350.58V1396.75Z"></path><path fill="#FAC22F" fill-rule="evenodd" d="M150.188 674.487H634.278V995.345H150.188V674.487ZM166.841 691.14V978.692H617.625V691.14H166.841Z" clip-rule="evenodd"></path><path fill="#fff" d="M781.764 682.813H1011.77C1000.97 815.321 1020.54 881.094 1089.68 987.018H859.67C783.973 877.875 770.816 810.439 781.764 682.813Z"></path><path fill="#F15846" fill-rule="evenodd" d="M774.122 674.487H1020.81L1020.07 683.49C1014.71 749.242 1016.95 797.774 1028.8 842.763C1040.66 887.77 1062.3 929.834 1096.65 982.467L1105.06 995.345H855.313L852.829 991.764C814.654 936.722 791.851 891.63 780.139 843.828C768.439 796.079 767.965 746.264 773.469 682.102L774.122 674.487ZM789.431 691.14C784.685 750.839 785.694 796.528 796.313 839.865C807.121 883.974 828.037 926.256 864.041 978.692H1074.42C1044.28 931.099 1024.19 890.613 1012.7 847.006C1000.75 801.66 998.25 753.485 1002.78 691.14H789.431Z" clip-rule="evenodd"></path><path fill="#F15846" d="M280.939 2713.27C309.24 2750.06 362.28 2747.05 388.588 2740.25 390.674 2739.72 391.892 2737.55 391.431 2735.45 364.477 2612.64 267.313 2597 203.609 2607 198.898 2607.74 198.432 2619.46 202.386 2622.12 227.53 2639.07 253.197 2677.21 280.939 2713.27zM501.839 2700.4C482.544 2733.86 431.294 2736.59 401.231 2733.17 396.425 2732.62 393.403 2727.82 394.733 2723.17 429.453 2601.72 515.428 2585.82 569.953 2595.53 577.6 2596.89 578.173 2607.36 571.682 2611.62 543.387 2630.22 523.674 2662.53 501.839 2700.4z"></path><path fill="#3E3D3D" fill-rule="evenodd" d="M400.56 2819.67V2426.43H383.907V2819.67H400.56Z" clip-rule="evenodd"></path><path fill="#F15846" d="M321.746 2419.01C310.466 2475.41 358.58 2538.5 387.801 2566.93C390.412 2569.47 394.379 2569.9 397.391 2567.85C440.784 2538.35 489.5 2453.55 444.17 2389.33C426.414 2364.18 412.976 2333.07 404.118 2305.61C401.218 2296.62 376.12 2294.25 371.515 2302.49C354.151 2333.59 331.189 2371.79 321.746 2419.01Z"></path><path fill="#53B3CC" fill-rule="evenodd" d="M1427.7 860.885C1308.84 860.885 1204.36 939.608 1171.58 1053.86L1097.1 1313.48L1223.23 1313.48L1276.45 1063.92C1294.32 980.134 1368.33 920.242 1454 920.242C1540.07 920.242 1614.31 980.678 1631.77 1064.96L1683.25 1313.48L1809.38 1313.48L1737.57 1055.8C1705.46 940.586 1600.51 860.885 1480.9 860.885H1427.7Z" clip-rule="evenodd"></path><path fill="#EFCB96" d="M1349.36 757.01C1364.2 682.813 1330.82 424.363 1312.27 304.412H1594.21C1590.5 351.403 1579.37 478.773 1564.53 612.327C1549.69 745.88 1578.14 843.572 1594.21 875.724C1620.18 938.791 1629.83 1064.92 1460.66 1064.92C1249.2 1064.92 1330.82 849.755 1349.36 757.01Z"></path><path fill="#EFCB96" d="M1612.76 808.947C1583.09 764.429 1560.83 702.599 1560.83 679.104L1534.86 757.01C1550.93 796.581 1585.31 876.466 1594.21 879.434C1603.12 882.402 1625.13 895.51 1635.02 901.693C1642.44 883.144 1642.44 853.465 1612.76 808.947Z"></path><path fill="#3E3D3D" fill-rule="evenodd" d="M1252.91 2627.66H852.251V2611.01H1252.91V2627.66Z" clip-rule="evenodd"></path><path fill="#46A4BC" fill-rule="evenodd" d="M866.182 2211.26V1599.14H882.835V2211.26H866.182ZM2031.06 2211.26V1599.14H2047.72V2211.26H2031.06Z" clip-rule="evenodd"></path><path fill="#F1F1F1" fill-rule="evenodd" d="M213.255 745.88H229.908V923.045H570.304V939.698H213.255V745.88Z" clip-rule="evenodd"></path><path fill="#FAC22F" fill-rule="evenodd" d="M243.536 815.401C228.803 802.391 220.487 785.75 217.264 774.063L233.317 769.635C235.811 778.676 242.59 792.349 254.558 802.918C266.269 813.259 283.099 820.799 306.638 817.992C340.458 813.959 363.806 818.88 380.34 828.245C396.889 837.62 405.546 850.856 411.039 861.227C415.763 870.148 422.606 879.498 433.395 886.241C444.096 892.929 459.409 897.511 481.913 895.69C524.395 892.252 546.323 917.351 552.086 932.04L536.583 938.122C533.198 929.492 517.619 909.508 483.256 912.289C457.731 914.354 438.739 909.219 424.568 900.362C410.484 891.559 401.89 879.534 396.322 869.022C391.524 859.961 384.743 849.878 372.132 842.735C359.506 835.583 339.972 830.788 308.61 834.528C280.005 837.939 258.527 828.638 243.536 815.401Z" clip-rule="evenodd"></path><path fill="#F15846" fill-rule="evenodd" d="M952.416 783.885H833.702V767.232H952.416V783.885ZM970.965 861.792H852.251V845.139H970.965V861.792ZM1004.35 928.568H885.639V911.915H1004.35V928.568Z" clip-rule="evenodd"></path><path fill="#F1F1F1" fill-rule="evenodd" d="M2749.08 677.963L2597.97 917.221C2669.02 950.23 2718.29 1022.23 2718.29 1105.73C2718.29 1176.38 2683.02 1238.79 2629.14 1276.33L2842.21 1466.01C2939.36 1376.52 3000.23 1248.24 3000.23 1105.73C3000.23 921.884 2898.92 761.699 2749.08 677.963Z" clip-rule="evenodd"></path><path fill="#3E3D3D" fill-rule="evenodd" d="M2451.18 312.738L1056.29 312.739L1056.29 296.086L2451.18 296.085L2451.18 312.738Z" clip-rule="evenodd"></path></g><defs><clipPath id="clip0_101_35646"><rect width="3000" height="3000" fill="#fff" transform="translate(.235 .618)"></rect></clipPath></defs></svg>