<svg xmlns="http://www.w3.org/2000/svg" viewBox="0 0 500 500"><g id="freepik--background-complete--inject-3"><rect y="382.4" width="500" height="0.25" style="fill:#ebebeb"></rect><rect x="416.78" y="398.49" width="33.12" height="0.25" style="fill:#ebebeb"></rect><rect x="322.53" y="401.21" width="8.69" height="0.25" style="fill:#ebebeb"></rect><rect x="396.59" y="389.21" width="19.19" height="0.25" style="fill:#ebebeb"></rect><rect x="52.46" y="390.89" width="43.19" height="0.25" style="fill:#ebebeb"></rect><rect x="104.56" y="390.89" width="6.33" height="0.25" style="fill:#ebebeb"></rect><rect x="131.47" y="395.11" width="93.68" height="0.25" style="fill:#ebebeb"></rect><path d="M237,337.8H43.91a5.71,5.71,0,0,1-5.7-5.71V60.66A5.71,5.71,0,0,1,43.91,55H237a5.71,5.71,0,0,1,5.71,5.71V332.09A5.71,5.71,0,0,1,237,337.8ZM43.91,55.2a5.46,5.46,0,0,0-5.45,5.46V332.09a5.46,5.46,0,0,0,5.45,5.46H237a5.47,5.47,0,0,0,5.46-5.46V60.66A5.47,5.47,0,0,0,237,55.2Z" style="fill:#ebebeb"></path><path d="M453.31,337.8H260.21a5.72,5.72,0,0,1-5.71-5.71V60.66A5.72,5.72,0,0,1,260.21,55h193.1A5.71,5.71,0,0,1,459,60.66V332.09A5.71,5.71,0,0,1,453.31,337.8ZM260.21,55.2a5.47,5.47,0,0,0-5.46,5.46V332.09a5.47,5.47,0,0,0,5.46,5.46h193.1a5.47,5.47,0,0,0,5.46-5.46V60.66a5.47,5.47,0,0,0-5.46-5.46Z" style="fill:#ebebeb"></path><rect x="50.9" y="254.53" width="18.62" height="127.87" transform="translate(120.42 636.93) rotate(180)" style="fill:#e6e6e6"></rect><polygon points="57.45 382.4 50.9 382.4 50.9 358.1 64.33 358.1 57.45 382.4" style="fill:#f0f0f0"></polygon><rect x="247.82" y="254.53" width="18.62" height="127.87" transform="translate(514.26 636.93) rotate(180)" style="fill:#e6e6e6"></rect><rect x="50.9" y="254.53" width="202.64" height="121.24" transform="translate(304.44 630.29) rotate(180)" style="fill:#f0f0f0"></rect><polygon points="246.99 382.4 253.54 382.4 253.54 358.1 240.11 358.1 246.99 382.4" style="fill:#f0f0f0"></polygon><path d="M244.73,365.36H188.81a2.59,2.59,0,0,1-2.58-2.58V266.64a2.58,2.58,0,0,1,2.58-2.57h55.92a2.57,2.57,0,0,1,2.57,2.57v96.14A2.58,2.58,0,0,1,244.73,365.36ZM188.81,265.07a1.57,1.57,0,0,0-1.58,1.57v96.14a1.58,1.58,0,0,0,1.58,1.58h55.92a1.57,1.57,0,0,0,1.57-1.58V266.64a1.57,1.57,0,0,0-1.57-1.57Z" style="fill:#fff"></path><path d="M180.18,365.36H124.26a2.58,2.58,0,0,1-2.57-2.58V266.64a2.57,2.57,0,0,1,2.57-2.57h55.92a2.58,2.58,0,0,1,2.58,2.57v96.14A2.59,2.59,0,0,1,180.18,365.36ZM124.26,265.07a1.57,1.57,0,0,0-1.57,1.57v96.14a1.57,1.57,0,0,0,1.57,1.58h55.92a1.58,1.58,0,0,0,1.58-1.58V266.64a1.57,1.57,0,0,0-1.58-1.57Z" style="fill:#fff"></path><path d="M115.63,365.36H59.71a2.58,2.58,0,0,1-2.57-2.58V266.64a2.57,2.57,0,0,1,2.57-2.57h55.92a2.58,2.58,0,0,1,2.58,2.57v96.14A2.59,2.59,0,0,1,115.63,365.36ZM59.71,265.07a1.57,1.57,0,0,0-1.57,1.57v96.14a1.57,1.57,0,0,0,1.57,1.58h55.92a1.58,1.58,0,0,0,1.58-1.58V266.64a1.57,1.57,0,0,0-1.58-1.57Z" style="fill:#fff"></path><rect x="311.99" y="80.89" width="103.09" height="274.02" transform="translate(727.06 435.79) rotate(180)" style="fill:#e6e6e6"></rect><rect x="306.91" y="80.89" width="107.45" height="274.02" transform="translate(721.26 435.79) rotate(180)" style="fill:#f0f0f0"></rect><rect x="311.99" y="354.9" width="103.09" height="4.72" transform="translate(727.06 714.53) rotate(180)" style="fill:#e6e6e6"></rect><rect x="298.45" y="354.9" width="107.45" height="4.72" transform="translate(704.34 714.53) rotate(180)" style="fill:#f0f0f0"></rect><rect x="230.74" y="171.28" width="259.79" height="93.23" transform="translate(578.53 -142.74) rotate(90)" style="fill:#fafafa"></rect><polygon points="335.26 347.79 346.65 88 366.35 88 354.96 347.79 335.26 347.79" style="fill:#fff"></polygon><path d="M404,166.16a.55.55,0,0,0,.55-.55v-73a.55.55,0,0,0-.55-.54.54.54,0,0,0-.54.54v73A.55.55,0,0,0,404,166.16Z" style="fill:#f0f0f0"></path><polygon points="359.19 347.79 370.58 88 378.26 88 366.88 347.79 359.19 347.79" style="fill:#fff"></polygon><rect x="184.57" y="217.44" width="259.79" height="0.9" transform="translate(532.37 -96.58) rotate(90)" style="fill:#e6e6e6"></rect><polygon points="305.23 97.28 409.97 97.28 410.63 90.76 305.88 90.76 305.23 97.28" style="fill:#e0e0e0;opacity:0.5"></polygon><polygon points="305.23 107.99 409.97 107.99 410.63 101.47 305.88 101.47 305.23 107.99" style="fill:#e0e0e0;opacity:0.5"></polygon><polygon points="305.23 118.7 409.97 118.7 410.63 112.19 305.88 112.19 305.23 118.7" style="fill:#e0e0e0;opacity:0.5"></polygon><polygon points="305.23 129.42 409.97 129.42 410.63 122.9 305.88 122.9 305.23 129.42" style="fill:#e0e0e0;opacity:0.5"></polygon><polygon points="305.23 140.13 409.97 140.13 410.63 133.61 305.88 133.61 305.23 140.13" style="fill:#e0e0e0;opacity:0.5"></polygon><polygon points="305.23 150.84 409.97 150.84 410.63 144.32 305.88 144.32 305.23 150.84" style="fill:#e0e0e0;opacity:0.5"></polygon><rect x="84.57" y="83.99" width="139.33" height="77.81" style="fill:#e6e6e6"></rect><rect x="83.24" y="83.99" width="139.33" height="77.81" style="fill:#f5f5f5"></rect><rect x="124" y="63.23" width="57.81" height="119.33" transform="translate(275.81 -30.01) rotate(90)" style="fill:#fff"></rect><polygon points="114.28 151.81 121.65 93.99 142.45 93.99 135.08 151.81 114.28 151.81" style="fill:#fafafa"></polygon><polygon points="140.5 151.81 147.87 93.99 159.71 93.99 152.34 151.81 140.5 151.81" style="fill:#fafafa"></polygon><polygon points="183.26 151.81 190.63 93.99 202.47 93.99 195.1 151.81 183.26 151.81" style="fill:#fafafa"></polygon><rect x="64.99" y="122.24" width="57.81" height="1.31" transform="translate(216.8 29) rotate(90)" style="fill:#e6e6e6"></rect><rect x="221.37" y="199.73" width="4.23" height="50.16" style="fill:#f5f5f5"></rect><rect x="223.86" y="199.67" width="1.2" height="50.16" style="fill:#fafafa"></rect><path d="M216.93,248.11H230a4.21,4.21,0,0,1,4.21,4.21v2.32a0,0,0,0,1,0,0H212.71a0,0,0,0,1,0,0v-2.32a4.21,4.21,0,0,1,4.21-4.21Z" style="fill:#f0f0f0"></path><rect x="225.77" y="247.74" width="4.78" height="2.99" rx="0.68" transform="translate(477.4 21.07) rotate(90)" style="fill:#f0f0f0"></rect><path d="M247.82,206H199.15l.34-1.18a25,25,0,0,1,24-18h0a25,25,0,0,1,24,18Z" style="fill:#e0e0e0"></path><rect x="78.42" y="199.73" width="4.23" height="50.16" style="fill:#f5f5f5"></rect><rect x="80.92" y="199.67" width="1.2" height="50.16" style="fill:#fafafa"></rect><path d="M74,248.11H87.1a4.21,4.21,0,0,1,4.21,4.21v2.32a0,0,0,0,1,0,0H69.77a0,0,0,0,1,0,0v-2.32A4.21,4.21,0,0,1,74,248.11Z" style="fill:#f0f0f0"></path><rect x="82.83" y="247.74" width="4.78" height="2.99" rx="0.68" transform="translate(334.45 164.02) rotate(90)" style="fill:#f0f0f0"></rect><path d="M104.88,206H56.2l.35-1.18a25,25,0,0,1,24-18h0a25,25,0,0,1,24,18Z" style="fill:#e0e0e0"></path></g><g id="freepik--Shadow--inject-3"><ellipse id="freepik--path--inject-3" cx="250" cy="416.24" rx="193.89" ry="11.32" style="fill:#f5f5f5"></ellipse></g><g id="freepik--Table--inject-3"><path d="M316.3,162.46h0a8.24,8.24,0,0,1,0-11.63l3.9-3.9a8.24,8.24,0,0,1,11.63,0h0a8.25,8.25,0,0,1,0,11.62l-3.91,3.91A8.25,8.25,0,0,1,316.3,162.46Z" style="fill:#90CAF9"></path><path d="M316.3,162.46h0a8.24,8.24,0,0,1,0-11.63l3.9-3.9a8.24,8.24,0,0,1,11.63,0h0a8.25,8.25,0,0,1,0,11.62l-3.91,3.91A8.25,8.25,0,0,1,316.3,162.46Z" style="fill:#fff;opacity:0.4"></path><path d="M321.79,157h0a10.62,10.62,0,0,1,0-15l7.64-7.64a10.62,10.62,0,0,1,15,0h0a10.61,10.61,0,0,1,0,15L336.77,157A10.64,10.64,0,0,1,321.79,157Z" style="fill:#90CAF9"></path><path d="M332.44,146.31h0a18.12,18.12,0,0,0-25.56,0l25.56,25.57A18.14,18.14,0,0,0,332.44,146.31Z" style="fill:#90CAF9"></path><path d="M342.81,195.89a1.55,1.55,0,0,1,0-3.1,28,28,0,0,0,0-56,1.55,1.55,0,1,1,0-3.09,31.1,31.1,0,1,1,0,62.19Z" style="fill:#90CAF9"></path><path d="M380.51,406.35l-35.38-168-4.73,1.29,18.37,87.2-27.43,79.46H306.93l.07-1.09h-5.45l-.4,5.91h80.78l.33-4.82Zm-21-76.13,16,76.13H333.19Z" style="fill:#90CAF9"></path><path d="M204.34,406.35,169,238.4l-4.73,1.29,18.36,87.2-27.43,79.46H130.76l.08-1.09h-5.46l-.39,5.91h80.77l.33-4.82Zm-21-76.13,16,76.13H157Z" style="fill:#90CAF9"></path><polygon points="361.27 321.78 356.72 334.95 180.99 334.95 185.53 321.78 361.27 321.78" style="fill:#90CAF9"></polygon><polygon points="354.35 331.71 356.72 334.95 180.99 334.95 178.62 331.71 354.35 331.71" style="fill:#90CAF9"></polygon><polygon points="354.35 331.71 356.72 334.95 180.99 334.95 178.62 331.71 354.35 331.71" style="opacity:0.2"></polygon><polygon points="326.08 301.47 111.44 301.47 108.33 298.37 384.64 180.83 387.74 183.93 326.08 301.47" style="fill:#90CAF9"></polygon><polygon points="326.08 301.47 111.44 301.47 108.33 298.37 384.64 180.83 387.74 183.93 326.08 301.47" style="opacity:0.4"></polygon><rect x="135.75" y="226.91" width="12.83" height="1" transform="translate(-125.25 247.76) rotate(-62.34)" style="fill:#90CAF9"></rect><rect x="132.76" y="239.03" width="6.1" height="1" transform="translate(-139.39 248.62) rotate(-62.34)" style="fill:#90CAF9"></rect><polygon points="322.97 298.37 108.33 298.37 170 180.83 384.64 180.83 322.97 298.37" style="fill:#90CAF9"></polygon><path d="M301.39,279.52l-151.91.54L194.42,196c36,2.58,89.92,2.82,148.9,1.65Z" style="opacity:0.30000000000000004"></path><path d="M299.2,280.06H148.62l43.26-82.46c46.38,1.72,96.05.62,149.55-.86C333.14,217.52,318.1,247.67,299.2,280.06Z" style="fill:#fff"></path><g style="opacity:0.6000000000000001"><path d="M175.14,270.34q21.23-.12,42.46-.2l45.55-.21,22.87-.11a.39.39,0,0,0,0-.77l-42.46.2-45.55.2-22.87.11a.39.39,0,0,0,0,.78Z" style="fill:#90CAF9"></path><path d="M284.15,271.09q13.61-25.9,27.47-51.68,4-7.42,8-14.84c.24-.44-.43-.83-.67-.4q-14,25.77-27.67,51.68-3.93,7.43-7.82,14.85c-.23.44.43.83.67.39Z" style="fill:#90CAF9"></path><path d="M320.08,204.93q-21.33.12-42.65.2l-46.09.21-22.8.11a.39.39,0,0,0,0,.78q21.33-.12,42.65-.2l46.09-.21,22.8-.11a.39.39,0,0,0,0-.78Z" style="fill:#90CAF9"></path><path d="M211.23,203.53q-13.74,26.19-27.77,52.25-4,7.47-8.06,14.92c-.24.44.43.83.67.39q14.12-26,28-52.24,3.94-7.46,7.86-14.93c.24-.44-.43-.83-.67-.39Z" style="fill:#90CAF9"></path><path d="M226.37,262,242,231.18l4.21-8.28c.23-.44-.44-.84-.67-.39l-16.13,31.7-3.75,7.35c-.22.45.45.84.67.39Z" style="fill:#90CAF9"></path><path d="M189.27,262.13l9-17.7c.22-.45-.45-.84-.67-.4l-9,17.71c-.22.45.45.84.67.39Z" style="fill:#90CAF9"></path><path d="M278,262c7.49-13.51,14.1-27.49,21.2-41.21,1.74-3.36,3.5-6.72,5.34-10,.24-.44-.43-.83-.67-.39-7.49,13.5-14.11,27.49-21.2,41.2-1.74,3.37-3.5,6.72-5.34,10-.24.43.42.83.67.39Z" style="fill:#90CAF9"></path><path d="M236.91,261.9c6.8-13.37,13.67-26.72,20.45-40.1l2.3-4.54,1.24-2.45.61-1.22c.17-.33.43-1.25.77-1.43a5.44,5.44,0,0,1,1.51,0l1.91,0,4.09,0q9.13-.09,18.25-.15c6.15,0,12.29-.05,18.44.06a.39.39,0,0,0,0-.77c-14.83-.26-29.67,0-44.49.17a.39.39,0,0,0-.34.19c-8.38,16.69-16.94,33.29-25.41,49.93-.23.45.44.84.67.39Z" style="fill:#90CAF9"></path><path d="M278.06,261.71c-3.65-13.15-8-26.1-12.18-39.08q-1.77-5.48-3.52-10.95c-.15-.48-.9-.28-.75.2,4.23,13.31,8.67,26.56,12.74,39.92,1,3.36,2,6.73,3,10.12a.39.39,0,0,0,.75-.21Z" style="fill:#90CAF9"></path><path d="M304.33,211.33c-8.26,7-17.12,13.2-25.95,19.42-9.56,6.73-19.2,13.34-28.59,20.29-4.64,3.43-9.23,6.94-13.63,10.67-.38.32.17.87.55.55,8.42-7.13,17.44-13.53,26.45-19.89,9.49-6.7,19.08-13.27,28.44-20.16,4.52-3.32,9-6.72,13.28-10.33.38-.33-.17-.87-.55-.55Z" style="fill:#90CAF9"></path><path d="M235.46,261.79c11.44.33,22.88.46,34.32.47,2.76,0,5.53,0,8.29-.06a.39.39,0,0,0,0-.77c-11.47.22-23,0-34.44-.22-2.72-.06-5.45-.11-8.17-.19a.39.39,0,0,0,0,.77Z" style="fill:#90CAF9"></path><path d="M219.6,262.26c7.29-13.57,14-27.42,21.07-41.12q2.61-5.08,5.3-10.12c.23-.44-.44-.83-.67-.39-7.29,13.57-14,27.42-21.07,41.12-1.74,3.39-3.49,6.77-5.3,10.12-.23.44.44.83.67.39Z" style="fill:#90CAF9"></path><path d="M198.07,262.09q6.84-13.44,13.7-26.87,3.42-6.72,6.84-13.44c1.12-2.19,2.23-4.39,3.34-6.58.36-.72.91-2.54,1.69-2.85a6.49,6.49,0,0,1,2,0l2.22,0c5.8-.1,11.61-.21,17.42,0,.49,0,.49-.76,0-.78-7.37-.23-14.74,0-22.1.11a.39.39,0,0,0-.34.19c-8.41,16.67-16.94,33.29-25.41,49.93-.23.44.44.84.67.39Z" style="fill:#90CAF9"></path><path d="M219.66,262.07c1.49-16.69,2.33-33.42,3.87-50.1.05-.5-.72-.5-.77,0-1.54,16.68-2.38,33.41-3.88,50.1,0,.49.73.49.78,0Z" style="fill:#90CAF9"></path><path d="M245.39,211.58c-12.4,13.38-25.28,26.3-37.87,39.49q-5.15,5.37-10.2,10.83c-.34.36.21.91.55.54,12.47-13.5,25.45-26.53,38.16-39.81q5-5.22,9.91-10.5c.34-.36-.21-.91-.55-.55Z" style="fill:#90CAF9"></path><path d="M197.11,262c7.37.36,14.78.68,22.16.47.5,0,.5-.79,0-.77-7.38.2-14.79-.11-22.16-.47-.5,0-.5.75,0,.77Z" style="fill:#90CAF9"></path><path d="M209,216.07a2.71,2.71,0,0,0-.31,2.06,1.8,1.8,0,0,0,1.28,1.2,5,5,0,0,0,4.12-1.19,4.3,4.3,0,0,0,1.76-3.69,2.33,2.33,0,0,0-2.48-2,3.59,3.59,0,0,0-2.23,1.13,11.76,11.76,0,0,0-.92.95,2.34,2.34,0,0,0-.59,1c-.09.49.66.7.75.21s.65-1,1-1.35a4.51,4.51,0,0,1,1.4-1.06,1.63,1.63,0,0,1,2.22,1,3.17,3.17,0,0,1-1,2.86,5,5,0,0,1-3.2,1.52,1.45,1.45,0,0,1-1.32-.51,1.72,1.72,0,0,1,.13-1.68c.23-.44-.44-.83-.67-.39Z" style="fill:#90CAF9"></path></g><path d="M384.64,180.83,323,298.37H108.33L170,180.83h61.53L200.17,195.2l-.07,0c-16,5.83-28.79,14.76-35.33,25.91-15,25.54,8.57,53,52.6,61.42s91.85-5.54,106.82-31.08a30.6,30.6,0,0,0,4.48-17l3.23-53.68Z" style="opacity:0.2"></path></g><g id="freepik--Character--inject-3"><path d="M190,161.09c-2.59,4.57-5.22,9.31-7.73,14s-5,9.42-7.06,14.14c-.54,1.18-1,2.35-1.48,3.52-.05.11,0,0,0,0v0s0,0,0,0,0,.08-.06.16a3.84,3.84,0,0,0,0,.9,12,12,0,0,0,.91,2.82c.46,1,1,2.11,1.61,3.18a116.16,116.16,0,0,0,8.94,12.77l-3.9,4.15a66.71,66.71,0,0,1-12.44-11.87,27.22,27.22,0,0,1-4.79-8.52,13.42,13.42,0,0,1-.58-3.13,11,11,0,0,1,.06-1.88,9,9,0,0,1,.16-1c0-.17.09-.35.13-.52l.13-.45c.46-1.38.9-2.78,1.4-4.12A158.88,158.88,0,0,1,172,169.82c2.51-5,5.12-9.79,8-14.61Z" style="fill:#ffc3bd"></path><path d="M183.68,211.26,189,213l-4.47,7.54s-3.92-1.77-4.7-5.36Z" style="fill:#ffc3bd"></path><polygon points="196.28 215.92 191.09 221.73 184.54 220.55 189.01 213.01 196.28 215.92" style="fill:#ffc3bd"></polygon><path d="M221.08,126c-.15.59,0,1.15.43,1.25s.82-.3,1-.89,0-1.16-.43-1.26S221.23,125.4,221.08,126Z" style="fill:#263238"></path><path d="M221.07,127.14a21.88,21.88,0,0,0,1.53,5.79,3.54,3.54,0,0,1-3-.19Z" style="fill:#ed847e"></path><path d="M219.76,122.15a.36.36,0,0,1,0-.66,3.56,3.56,0,0,1,3.27.26.38.38,0,0,1,.09.51.36.36,0,0,1-.5.08h0a2.87,2.87,0,0,0-2.6-.18A.34.34,0,0,1,219.76,122.15Z" style="fill:#263238"></path><path d="M200.69,128.32c1.09,5.55,2.18,15.72-1.71,19.42,0,0,1.52,5.64,11.83,5.64,11.35,0,5.43-5.64,5.43-5.64-6.2-1.47-6-6.07-5-10.38Z" style="fill:#ffc3bd"></path><path d="M197.08,150.6c-.53-3-1.12-6.4.84-7.27,2.15-1,13.45-1.06,17.1,1.46s2,8.32,2,8.32Z" style="fill:#263238"></path><path d="M197.08,150.6c-.53-3-1.12-6.4.84-7.27,2.15-1,13.45-1.06,17.1,1.46s2,8.32,2,8.32Z" style="fill:#90CAF9;opacity:0.6000000000000001"></path><path d="M160.87,405.16a2.43,2.43,0,0,0,1.89-.1.73.73,0,0,0,.18-.84.85.85,0,0,0-.47-.53c-1-.49-3.37.47-3.47.52a.19.19,0,0,0-.12.16.17.17,0,0,0,.11.16A8.82,8.82,0,0,0,160.87,405.16Zm1.24-1.21.21.07a.49.49,0,0,1,.27.31c.1.32,0,.42-.06.45-.41.35-1.92,0-3-.4A5.9,5.9,0,0,1,162.11,404Z" style="fill:#90CAF9"></path><path d="M159,404.55h.08c.86-.25,2.7-1.55,2.72-2.41a.58.58,0,0,0-.46-.58,1,1,0,0,0-.8.06c-1,.52-1.65,2.62-1.68,2.71a.18.18,0,0,0,.05.18A.19.19,0,0,0,159,404.55Zm2.14-2.69.08,0c.22.07.22.18.22.23,0,.51-1.22,1.53-2.11,1.95a4.31,4.31,0,0,1,1.38-2.14A.67.67,0,0,1,161.17,401.86Z" style="fill:#90CAF9"></path><path d="M216.83,408.88c1,0,1.91-.14,2.23-.57a.68.68,0,0,0,0-.79.89.89,0,0,0-.57-.42c-1.26-.34-3.91,1.17-4,1.23a.18.18,0,0,0-.09.19.19.19,0,0,0,.14.15A14,14,0,0,0,216.83,408.88Zm1.2-1.47a1.29,1.29,0,0,1,.35,0,.55.55,0,0,1,.35.25c.13.22.08.33,0,.4-.36.49-2.28.5-3.69.3A8.17,8.17,0,0,1,218,407.41Z" style="fill:#90CAF9"></path><path d="M214.54,408.67l.07,0c.91-.41,2.73-2,2.59-2.91,0-.2-.18-.45-.67-.5a1.32,1.32,0,0,0-1,.31c-1,.79-1.17,2.84-1.17,2.92a.18.18,0,0,0,.07.17A.2.2,0,0,0,214.54,408.67Zm1.85-3.08h.1c.33,0,.35.16.36.2.08.51-1.15,1.8-2.09,2.37a4.25,4.25,0,0,1,1-2.34A1,1,0,0,1,216.39,405.59Z" style="fill:#90CAF9"></path><polygon points="206.19 408.49 213.78 408.49 214.53 390.91 206.95 390.91 206.19 408.49" style="fill:#ffc3bd"></polygon><polygon points="150.57 402.53 157.98 404.14 165.43 387.77 158.01 386.16 150.57 402.53" style="fill:#ffc3bd"></polygon><path d="M158.7,403.39l-8.34-1.8a.66.66,0,0,0-.74.37l-2.89,6.27a1.12,1.12,0,0,0,.8,1.56c2.92.58,4.37.71,8,1.51,2.26.49,7.35,1.73,10.46,2.4s4.19-2.32,3-2.87c-5.44-2.49-7.71-4.68-9.19-6.72A1.84,1.84,0,0,0,158.7,403.39Z" style="fill:#263238"></path><path d="M213.73,407.61h-8.29a.65.65,0,0,0-.64.52l-1.5,6.74a1.1,1.1,0,0,0,1.09,1.35c3-.05,7.31-.22,11.07-.22,4.39,0,8.18.24,13.34.24,3.11,0,4-3.15,2.67-3.44-5.93-1.3-10.78-1.44-15.91-4.6A3.57,3.57,0,0,0,213.73,407.61Z" style="fill:#263238"></path><path d="M228.86,156.91c2.47,5.57,5.17,11.29,8,16.76,1.41,2.74,2.88,5.44,4.4,8a71.72,71.72,0,0,0,4.86,7.3l.64.8c.16.15,0,.08.25.26a9.28,9.28,0,0,0,1.28.94,39.65,39.65,0,0,0,3.71,2c2.68,1.29,5.53,2.53,8.42,3.7,5.77,2.35,11.71,4.6,17.61,6.85l-1.44,5.52a182.28,182.28,0,0,1-19-4.1c-3.14-.9-6.28-1.82-9.45-3a44.84,44.84,0,0,1-4.88-2.14,19.84,19.84,0,0,1-2.69-1.68,12.48,12.48,0,0,1-1.52-1.35l-.93-1a67.73,67.73,0,0,1-6.23-8.23c-1.85-2.79-3.52-5.64-5.12-8.52a175.35,175.35,0,0,1-8.5-17.69Z" style="fill:#ffc3bd"></path><path d="M183.05,149.46c-7.11,1.63-19.05,36.95-19.05,36.95l11.62,3.86s11.86-17.57,15.89-26C195.72,155.36,190.33,147.79,183.05,149.46Z" style="fill:#90CAF9"></path><path d="M183.05,149.46c-7.11,1.63-19.05,36.95-19.05,36.95l11.62,3.86s11.86-17.57,15.89-26C195.72,155.36,190.33,147.79,183.05,149.46Z" style="opacity:0.5"></path><path d="M177.64,188.54s-11.39-2.17-14-3.79c-.91,1.32-2,6.1-1.26,7.51s11.35,3.44,12.79,2.61S177.64,188.54,177.64,188.54Z" style="fill:#263238"></path><path d="M177.64,188.54s-11.39-2.17-14-3.79c-.91,1.32-2,6.1-1.26,7.51s11.35,3.44,12.79,2.61S177.64,188.54,177.64,188.54Z" style="fill:#90CAF9;opacity:0.6000000000000001"></path><path d="M187.66,162c-2.17,2.17-4.14,8.33-4.2,16.16,2.51-4,5.1-8.29,6.91-11.72C189.51,163.35,188.55,161.14,187.66,162Z" style="opacity:0.30000000000000004"></path><path d="M225.57,149.85s8.08,9.12.45,65.6H185.43c-.28-6.23,3.63-36.63-2.38-66a105.63,105.63,0,0,1,13.59-1.72,150.47,150.47,0,0,1,17.26,0A76.07,76.07,0,0,1,225.57,149.85Z" style="fill:#90CAF9"></path><path d="M225.57,149.85s8.08,9.12.45,65.6H185.43c-.28-6.23,3.63-36.63-2.38-66a105.63,105.63,0,0,1,13.59-1.72,150.47,150.47,0,0,1,17.26,0A76.07,76.07,0,0,1,225.57,149.85Z" style="opacity:0.5"></path><path d="M219.55,167.89c.77,8.24,6,18.7,9.06,23.44.4-5.44.61-10.18.67-14.32Z" style="opacity:0.30000000000000004"></path><path d="M215.52,155.73c-4.89,9.25,20.64,39.33,20.64,39.33l8.92-9.05s-11.58-20.25-14.3-29.23C227.42,145.68,219.24,148.69,215.52,155.73Z" style="fill:#90CAF9"></path><path d="M215.52,155.73c-4.89,9.25,20.64,39.33,20.64,39.33l8.92-9.05s-11.58-20.25-14.3-29.23C227.42,145.68,219.24,148.69,215.52,155.73Z" style="opacity:0.5"></path><path d="M244.72,184.22s-7.74,8.63-10.46,10c.66,1.46,4.17,4.89,5.78,5s8.81-7.94,8.84-9.6S244.72,184.22,244.72,184.22Z" style="fill:#263238"></path><path d="M244.72,184.22s-7.74,8.63-10.46,10c.66,1.46,4.17,4.89,5.78,5s8.81-7.94,8.84-9.6S244.72,184.22,244.72,184.22Z" style="fill:#90CAF9;opacity:0.6000000000000001"></path><path d="M276.28,203.62l7.35-3.17,2.29,8s-5.61,3.67-10.1.46Z" style="fill:#ffc3bd"></path><path d="M291.83,204.24h0a.53.53,0,0,1-.73-.14L282.94,192a.52.52,0,0,1,.14-.73h0a.52.52,0,0,1,.73.14l8.16,12.1A.52.52,0,0,1,291.83,204.24Z" style="fill:#263238"></path><polygon points="291.38 201.04 294.61 205.82 285.92 208.42 283.63 200.44 291.38 201.04" style="fill:#ffc3bd"></polygon><polygon points="214.53 390.92 214.15 399.98 206.55 399.98 206.94 390.92 214.53 390.92" style="opacity:0.2"></polygon><polygon points="158.01 386.17 165.43 387.77 161.59 396.21 154.17 394.6 158.01 386.17" style="opacity:0.2"></polygon><path d="M201.63,119.66c-1.42,7.4-2.63,11.66.09,16.34,4.09,7,13.93,6,17.53-.81,3.25-6.14,5-17.2-1.36-21.93A10.27,10.27,0,0,0,201.63,119.66Z" style="fill:#ffc3bd"></path><path d="M198.71,116c5.35-1.75,15.49-5.52,19.07,3.09s-11,17.6-14.71,17.61C200.09,136.73,192.83,118,198.71,116Z" style="fill:#263238"></path><path d="M209.85,119.63c10.48,5.75,20-2.52,15.75-11.87s-13.54-8-10.65-3.44-5.1-2.35-10.62-.22c-3.87,1.49,1.15,3.92,1.62,5.68s-10.13,1.81-11.54,4.45,3.68,8.14,6.29,7.28S208,118.6,209.85,119.63Z" style="fill:#263238"></path><path d="M212.88,124.06a8.46,8.46,0,0,0,.78,5.41c1.13,2.18,3.09,1.53,3.94-.54.77-1.87,1.1-5.25-.6-6.74S213.32,121.85,212.88,124.06Z" style="fill:#ffc3bd"></path><path d="M211.62,215.45s-8.61,58-13.34,79.72c-5.18,23.8-32.86,100.07-32.86,100.07l-13.59-2.94s20.73-71.41,23.68-95c3.21-25.57,9.92-81.88,9.92-81.88Z" style="fill:#263238"></path><path d="M168.67,390.71c.06,0-2.53,4.91-2.53,4.91l-15.29-3.31,1.29-4.59Z" style="fill:#90CAF9"></path><path d="M206.18,236.11c-10,1.95-8.91,39.09-7.71,58.19,2.87-13.5,7.08-39.48,9.95-57.92A3.44,3.44,0,0,0,206.18,236.11Z" style="opacity:0.30000000000000004"></path><path d="M226,215.45s1,56.74.22,79.88C225.38,319.4,217,398.22,217,398.22H204.12s-.48-77.41-1.05-101.05c-.62-25.77-3.73-81.72-3.73-81.72Z" style="fill:#263238"></path><path d="M219.45,393.1c.06,0-.73,5.34-.73,5.34H203.08l-.42-4.76Z" style="fill:#90CAF9"></path></g></svg>