<?xml version="1.0" encoding="utf-8"?>
<!-- Generator: Adobe Illustrator 27.5.0, SVG Export Plug-In . SVG Version: 6.00 Build 0)  -->
<svg version="1.1" xmlns="http://www.w3.org/2000/svg" xmlns:xlink="http://www.w3.org/1999/xlink" x="0px" y="0px"
	 viewBox="0 0 500 500" style="enable-background:new 0 0 500 500;" xml:space="preserve">
<g id="BACKGROUND">
	<g style="opacity:0.4;">
		<rect style="fill:#B7F7ED;" width="500" height="500"/>
	</g>
</g>
<g id="OBJECTS">
	<g>
		<g>
			<path style="fill:#FFFFFF;" d="M176.257,161.7c2.931-0.38,5.818-0.612,8.63-0.682c11.468-0.285,22.729,2.692,28.08,13.766
				c8.867,18.352,7.111,46-0.937,64.407c-7.229,16.534-23.026,29.034-40.779,32.269c-17.753,3.235-36.943-2.89-49.539-15.812
				c-7.134-7.318-12.358-17.836-15.082-27.629c-5.447-19.579,3.617-36.497,19.818-47.458
				C140.138,171.299,158.957,163.94,176.257,161.7z"/>
		</g>
		<g>
			<path style="fill:#FFFFFF;" d="M31.35,395c0-30.312,3.435-51.675,17.452-74.79c14.017-23.115,37.989-40.922,64.057-40.935
				c23.868-0.012,47.586,14.367,70.61,7.748c22.723-6.532,35.819-30.758,47.144-52.482c11.325-21.724,26.368-45.363,49.688-48.865
				c22.346-3.356,42.909,13.656,56.655,32.487c13.746,18.831,24.26,40.906,42.166,55.361c19.732,15.928,46.134,20.619,65.622,36.876
				c22.855,19.066,23.906,52.241,23.906,84.6"/>
		</g>
	</g>
	<g>
		<g>
			<g>
				<rect x="60.357" y="236.69" style="fill:#99E1D9;" width="379.285" height="11.072"/>
			</g>
			<g>
				<rect x="173.436" y="236.69" style="fill:#B7F7ED;" width="266.206" height="11.072"/>
			</g>
		</g>
		<g>
			<g>
				<g>
					<polygon style="fill:#99E1D9;" points="111.478,247.762 92.632,395 77.084,395 77.084,247.762 					"/>
				</g>
				<g>
					<polygon style="fill:#B7F7ED;" points="111.478,247.762 92.632,395 87.685,395 87.685,247.762 					"/>
				</g>
			</g>
			<g>
				<g>
					<rect x="310.78" y="247.762" style="fill:#99E1D9;" width="100.357" height="147.238"/>
				</g>
				<g>
					<rect x="322.559" y="247.762" style="fill:#B7F7ED;" width="100.357" height="147.238"/>
				</g>
				<g>
					<rect x="322.559" y="296.216" width="100.357" height="1.25"/>
				</g>
				<g>
					<rect x="322.559" y="345.296" width="100.357" height="1.25"/>
				</g>
				<g>
					<polygon points="404.68,304.926 380.116,304.926 376.229,297.12 377.348,296.563 380.89,303.676 403.906,303.676 
						407.448,296.563 408.567,297.12 					"/>
				</g>
				<g>
					<polygon points="404.68,255.847 380.116,255.847 376.229,248.04 377.348,247.483 380.89,254.597 403.906,254.597 
						407.448,247.483 408.567,248.04 					"/>
				</g>
				<g>
					<polygon points="404.68,354.045 380.116,354.045 376.229,346.238 377.348,345.681 380.89,352.795 403.906,352.795 
						407.448,345.681 408.567,346.238 					"/>
				</g>
			</g>
		</g>
	</g>
	<g>
		<g>
			<polygon style="fill:#FF6464;" points="157.217,236.69 188.504,236.69 195.74,202.329 164.453,202.329 			"/>
		</g>
		<g>
			<polygon style="fill:#F24646;" points="233.607,204.277 119.35,204.277 102.86,125.967 217.116,125.967 			"/>
		</g>
		<g>
			<polygon style="fill:#FF6464;" points="240.674,204.277 126.418,204.277 122.401,185.207 109.927,125.967 224.184,125.967 
				236.658,185.207 			"/>
		</g>
		<g>
			<polygon style="fill:#B7F7ED;" points="236.658,185.207 122.401,185.207 109.927,125.967 224.184,125.967 			"/>
		</g>
		<g>
			<ellipse style="fill:#FFFFFF;" cx="180.837" cy="194.553" rx="3.651" ry="4.019"/>
		</g>
		<g>
			<rect x="150.447" y="229.17" style="fill:#F24646;" width="54.419" height="7.52"/>
		</g>
		<g style="opacity:0.5;">
			<polygon style="fill:#FFFFFF;" points="171.649,125.967 122.401,185.207 158.328,185.207 179.53,125.967 			"/>
		</g>
		<g style="opacity:0.5;">
			<polyline style="fill:#FFFFFF;" points="170.825,185.207 198.034,125.967 224.184,125.967 185.784,185.207 			"/>
		</g>
	</g>
	<g>
		<g>
			<g>
				<g>
					<path style="fill:#FFB78F;" d="M219.001,236.69c0,0-9.659,0.471-13.169-3.416l-17.68-5.032c0,0-1.426-0.268-1.662-1.682
						c-0.236-1.413,10.601-7.716,32.51-4.093"/>
				</g>
				<g>
					<path style="fill:#23CE6B;" d="M178.241,236.69c0,0,4.716-9.423,15.789-9.423s13.392,9.423,13.392,9.423"/>
				</g>
			</g>
			<g>
				<g>
					<path style="fill:#FFB78F;" d="M357.458,129.126c-0.012,0.119-0.027,0.238-0.041,0.357c-0.032,0.267-0.068,0.535-0.109,0.799
						c-0.012,0.09-0.027,0.182-0.044,0.272c-0.014,0.104-0.031,0.206-0.051,0.309c-0.024,0.146-0.051,0.289-0.078,0.432
						c-0.027,0.143-0.056,0.287-0.085,0.43c-0.058,0.284-0.122,0.569-0.187,0.853c-1.047,4.478-3.198,8.611-5.144,12.766
						l3.511,28.573l-22.715,0.328l0.559-10.744l0.243-4.658c-0.002,0.002-0.01,0.005-0.012,0.007
						c-1.941,1.273-4.123,2.109-6.213,2.17c-4.024,0.114-8.144-1.766-10.44-5.149c-3.47-5.11-0.814-12.843,0.476-19.012
						c1.016-4.862,1.662-9.444,3.12-13.896c0.576-1.764,1.278-3.506,2.182-5.238c0.027-0.056,0.056-0.112,0.085-0.168
						c0.138-0.255,0.282-0.513,0.432-0.765c0.002-0.007,0.007-0.015,0.012-0.022c1.329-2.25,3.108-4.349,5.428-5.654
						c3.025-1.701,7.005-2.005,10.394-1.723c7.017,0.583,14.644,3.015,17.453,9.687c0.479,1.135,0.821,2.318,1.045,3.53
						C357.67,124.734,357.699,126.942,357.458,129.126z"/>
				</g>
				<g>
					<path d="M337.862,154.797c-0.971,3.193-2.626,6.163-4.79,8.705l0.243-4.657c-0.003,0.002-0.008,0.005-0.01,0.007
						C334.801,157.484,336.281,156.108,337.862,154.797z"/>
				</g>
				<g>
					<path style="fill:#FFB78F;" d="M319.327,130.752c-0.904,2.017-2.254,3.833-3.926,5.28c-0.419,0.363-0.861,0.706-1.215,1.132
						c-0.354,0.426-0.62,0.954-0.612,1.509c0.012,0.761,0.529,1.423,1.112,1.912c1.54,1.292,3.73,1.766,5.666,1.226"/>
				</g>
				<g>
					<path d="M357.458,129.126c-0.012,0.119-0.027,0.238-0.041,0.357c-0.032,0.267-0.068,0.535-0.109,0.799
						c-0.012,0.09-0.027,0.182-0.044,0.272c-0.014,0.104-0.031,0.206-0.051,0.309c-0.024,0.146-0.051,0.289-0.078,0.432
						c-0.027,0.143-0.056,0.287-0.085,0.43c-0.058,0.284-0.122,0.569-0.187,0.853c-1.047,4.478-3.198,8.611-5.144,12.766
						c-2.498,1.356-4.677,1.871-7.423,1.132c-2.741-0.736-5.353-2.481-6.871-5.132c1.847,1.157,4.145,1.885,6.193,1.072
						c2.046-0.812,3.55-2.869,3.649-5.071c0.1-2.199-1.244-4.41-3.261-5.287c-2.021-0.88-4.475-0.309-5.921,1.348
						c-0.799-1.825-1.346-3.754-1.628-5.722c-0.27-1.873-0.299-3.783-0.08-5.664c-2.775,0.036-5.353-0.362-7.96-1.314
						c-2.124-0.775-4.104-2.099-5.438-3.905c-0.007-0.01-0.015-0.022-0.022-0.032c-0.294-0.401-0.554-0.824-0.777-1.271
						c-1.239-2.481-1.144-5.702,0.615-7.848c1.635-1.995,4.398-2.78,6.973-2.636c2.576,0.141,5.032,1.081,7.437,2.009
						c3.499,1.348,6.995,2.697,10.494,4.048c2.539,0.979,5.17,2.019,7.029,4.009c1.708,1.832,2.59,4.315,2.901,6.803
						c0.032,0.25,0.058,0.498,0.078,0.743C357.901,124.828,357.699,126.886,357.458,129.126z"/>
				</g>
				<g>
					<path d="M340.092,139.314l-0.87-0.348l0.097-4.292l0.999,0.023l-0.07,3.069c0.992-0.859,2.143-1.532,3.381-1.973l0.336,0.942
						C342.488,137.261,341.149,138.153,340.092,139.314z"/>
				</g>
				<g>
					<path d="M319.328,145.835c-0.327,0-0.654-0.057-0.962-0.171l0.349-0.937c0.481,0.179,1.036,0.137,1.483-0.113
						c0.448-0.25,0.776-0.7,0.876-1.202l0.98,0.196c-0.157,0.786-0.669,1.489-1.369,1.88
						C320.271,145.717,319.799,145.835,319.328,145.835z"/>
				</g>
				<g>
					<path d="M322.776,133.643c-0.079,0.782-0.484,1.381-0.904,1.339c-0.42-0.042-0.697-0.711-0.618-1.493
						c0.079-0.782,0.484-1.381,0.904-1.339C322.578,132.192,322.855,132.861,322.776,133.643z"/>
				</g>
				<g>
					<path d="M324.844,130.783c0.384,0.06,0.851,0.068,1.078-0.248c0.153-0.214,0.133-0.516,0.013-0.75
						c-0.12-0.234-0.325-0.412-0.533-0.573c-0.884-0.682-1.928-1.154-3.023-1.368c-0.41-0.08-0.843-0.123-1.24,0.006
						c-0.397,0.129-0.751,0.468-0.785,0.884C320.251,129.965,323.979,130.648,324.844,130.783z"/>
				</g>
			</g>
			<g>
				<path style="fill:#948BD8;" d="M379.943,225.617c0,0,12.155-45.868,2.551-51.357c-13.193-7.539-73.972-3.769-85.045,4.947
					c-8.247,6.492-26.15,24.029-26.15,24.029l-54.89,11.072l2.591,22.38c0,0,50.65,4.947,62.193,2.356
					c12.357-2.774,19.318-9.188,19.318-9.188l-3.298,25.678h76.564"/>
			</g>
		</g>
		<g>
			<polygon style="fill:#7571D3;" points="300.512,229.858 303.718,255.222 297.25,255.222 			"/>
		</g>
		<g>
			<g>
				<g>
					<path style="fill:#FFB78F;" d="M226.455,366.399l-2.542,15.116L221.647,395h-59.315c0.365-13.056,12.599-13.856,16.385-14.264
						c4.476-0.484,10.019-0.503,13.023-2.901c2.026-1.617,3.397-3.723,4.32-6.177c0.563-1.487,0.961-3.102,1.242-4.816
						L226.455,366.399z"/>
				</g>
				<g>
					<g>
						<path d="M223.913,381.514L221.647,395h-59.315c0.365-13.056,12.599-13.856,16.385-14.264
							c4.476-0.484,10.019-0.503,13.023-2.901c2.026-1.617,3.397-3.723,4.32-6.177c0.351,0.225,0.674,0.493,0.956,0.803
							c1.055,1.153,1.55,2.754,1.661,4.332c0.111,1.579-0.13,3.158-0.37,4.722H223.913z"/>
					</g>
					<g>
						<g>
							<path d="M191.972,380.137c-2.335,0-6.432-1.77-8.122-2.676c-3.89-2.087-5.508-4.213-4.556-5.987l0,0
								c0.307-0.572,0.948-1.263,2.26-1.303c2.191-0.065,5.081,1.717,6.609,2.788c2.255,1.58,4.244,3.46,5.068,4.789
								c0.165,0.267,0.669,1.079,0.311,1.747C193.297,379.953,192.726,380.137,191.972,380.137z M192.419,378.972L192.419,378.972
								L192.419,378.972z M180.396,372.065c-0.378,0.705,0.317,1.582,0.967,2.195c3.081,2.901,9.865,4.978,11.041,4.618
								c-0.118-0.435-0.988-1.731-3.263-3.606c-2.235-1.842-4.6-3.218-6.327-3.681C180.923,371.082,180.527,371.822,180.396,372.065
								L180.396,372.065z"/>
						</g>
						<g>
							<path d="M192.594,379.935c-0.623,0-1.485-0.408-2.636-1.237c-1.291-0.93-2.753-2.277-3.912-3.603
								c-2.591-2.963-3.276-5.244-1.93-6.42c0.43-0.376,1.172-0.746,2.262-0.374c2.986,1.019,6.725,7.29,7.224,9.82
								c0.054,0.274,0.219,1.109-0.304,1.566C193.108,379.852,192.875,379.935,192.594,379.935z M184.938,369.616
								c-0.339,0.296-0.327,0.87,0.035,1.706c1.302,3.007,6.131,7.073,7.453,7.351c-0.031-1.303-2.936-6.992-5.741-8.826
								C185.535,369.094,185.086,369.487,184.938,369.616L184.938,369.616z"/>
						</g>
					</g>
					<g>
						<rect x="162.933" y="390.219" style="fill:#FFFFFF;" width="59.412" height="1.25"/>
					</g>
				</g>
			</g>
			<g>
				<g>
					<path style="fill:#FFB78F;" d="M301.69,375.9L279.781,395h-33.453c0.377-4.531,3.381-8.842,7.067-11.363
						c4.24-2.901,11.225-3.709,14.396-6.886c2.099-2.101,3.11-5.457,3.192-9.311c0.059-2.587-0.304-5.396-1.034-8.203l26.357-2.316
						l2.031,7.159L301.69,375.9z"/>
				</g>
				<g>
					<g>
						<path d="M301.69,375.9L279.781,395h-33.453c0.377-4.531,3.381-8.842,7.067-11.363c4.24-2.901,11.225-3.709,14.396-6.886
							c2.099-2.101,3.11-5.457,3.192-9.311c2.905,3.015,4.361,7.485,3.692,11.682h4.634l19.028-15.043L301.69,375.9z"/>
					</g>
					<g>
						<polygon style="fill:#FFFFFF;" points="278.132,391.469 247.401,391.469 247.401,390.219 277.897,390.219 299.983,370.957 
							300.805,371.898 278.543,391.315 						"/>
					</g>
					<g>
						<g>
							<path d="M267.179,378.369c-2.301,0-5.662-0.874-7.785-1.714c-3.904-1.545-5.625-3.481-4.845-5.452l0,0
								c0.216-0.545,0.728-1.232,1.943-1.412c2.138-0.318,5.284,1.097,6.969,1.968c2.524,1.305,4.759,2.91,5.695,4.091
								c0.181,0.228,0.732,0.923,0.461,1.608C269.357,378.113,268.423,378.369,267.179,378.369z M257.129,370.995
								c-0.766,0-1.242,0.224-1.418,0.668l0,0c-0.29,0.733,0.151,1.526,1.31,2.358c3.392,2.435,10.308,3.499,11.395,2.962
								c-0.427-1.128-6.375-5.367-10.575-5.936C257.581,371.012,257.343,370.995,257.129,370.995z"/>
						</g>
						<g>
							<path d="M261.139,379.767c-0.128,0-0.253-0.001-0.374-0.004c-4.666-0.109-5.321-1.902-5.297-2.961l0,0
								c0.012-0.536,0.236-1.289,1.227-1.831c1.671-0.914,4.635-0.749,6.254-0.571c2.429,0.269,4.703,0.871,5.792,1.534
								c0.583,0.355,0.874,0.763,0.863,1.212C269.564,378.926,264.27,379.767,261.139,379.767z M260.575,375.499
								c-0.917,0-1.787,0.083-2.525,0.281c-0.873,0.235-1.322,0.588-1.332,1.052l0,0c-0.005,0.217-0.02,0.877,1.441,1.324
								c3.279,1.004,9.165-0.222,10.122-1.033C267.558,376.509,263.78,375.499,260.575,375.499z"/>
						</g>
					</g>
				</g>
			</g>
			<g>
				<polyline style="fill:#F24646;" points="239.025,288.259 262.112,368.647 300.276,356.523 280.733,288.259 				"/>
			</g>
			<g>
				
					<rect x="280.987" y="283.177" transform="matrix(0.9626 -0.271 0.271 0.9626 -76.6893 88.3611)" style="fill:#FFFFFF;" width="1.25" height="77.392"/>
			</g>
			<g>
				<path style="fill:#FF6464;" d="M325.719,248.988c0,0-87.872-4.481-105.305,3.69c-17.433,8.17-32.746,115.969-32.746,115.969
					h41.462l15.313-80.388h49.142"/>
			</g>
			<g>
				<polygon style="fill:#FFFFFF;" points="220.634,368.761 219.405,368.533 236.01,278.761 236.625,278.25 314.875,278.25 
					314.875,279.5 237.145,279.5 				"/>
			</g>
		</g>
		<g>
			<path style="fill:#7571D3;" d="M360.991,159.806c3.82,0.406,7.685,1.268,10.752,3.326c3.067,2.058,5.194,5.513,4.628,8.99
				c-0.669,4.117-4.667,7.079-8.362,9.598c-5.299,3.613-11.108,7.391-17.658,7.444c-4.063,0.033-7.909-1.395-11.628-2.8
				c-5.151-1.945-22.601-5.629-18.014-13.69c1.98-3.481,7.319-6.006,10.978-7.762c4.254-2.041,8.817-3.531,13.501-4.422
				C350.405,159.495,355.735,159.275,360.991,159.806z"/>
		</g>
		<g>
			<path style="fill:#FFFFFF;" d="M264.67,239.93l-1.091-0.61c0.22-0.393,5.493-9.649,14.53-11.209
				c5.294-0.914,10.739,1.035,16.177,5.794l-0.823,0.941c-5.141-4.498-10.236-6.35-15.141-5.503
				C269.866,230.802,264.721,239.839,264.67,239.93z"/>
		</g>
	</g>
	<g>
		<g>
			<path style="fill:#23CE6B;" d="M396.204,239.633c4.55-16.934-8.037-33.704-25.57-33.917c-0.284-0.004-0.571-0.005-0.861-0.005
				c-0.302,0-0.601,0.002-0.898,0.006c-18.012,0.227-33.694,12.383-38.675,29.693l-2.706,9.402
				c-1.888,6.56-7.889,11.078-14.716,11.078h-16.608c-12.822,0-24.287,7.988-28.729,20.015l-2.649,7.173
				c-2.557,6.922,2.565,14.274,9.945,14.274h87.895c10.657,0,19.986-7.154,22.751-17.445L396.204,239.633z"/>
		</g>
		<g>
			
				<rect x="247.536" y="347.848" transform="matrix(0.4516 -0.8922 0.8922 0.4516 -146.5611 458.5095)" width="104.303" height="1.25"/>
		</g>
		<g>
			
				<rect x="346.179" y="296.321" transform="matrix(0.8922 -0.4517 0.4517 0.8922 -120.0134 194.2396)" width="1.25" height="104.303"/>
		</g>
		<g>
			<path style="fill:#0DBC54;" d="M299.711,297.352c0,0,5.227,9.423,23.421,9.423c18.194,0,23.789-9.423,23.789-9.423"/>
		</g>
	</g>
	<g>
		<g>
			<g>
				<path style="fill:#23CE6B;" d="M165.897,301.385c-7.665,0.022-14.81-2.217-20.8-6.095L143,283.75l-1.275,9.087
					c-8.55-6.965-14.025-17.565-14.063-29.455h0.12C148.78,263.383,165.835,280.372,165.897,301.385z"/>
			</g>
			<g>
				<path style="fill:#0DBC54;" d="M92.027,271.688v0.098c0,17.5-14.157,31.712-31.67,31.765c-0.02-6.975,2.208-13.43,6.003-18.682
					l8.202-0.117l-6.495-2.045C73.872,275.983,82.447,271.715,92.027,271.688z"/>
			</g>
			<g>
				<path style="fill:#23CE6B;" d="M108.135,264.035C100,261.35,93.475,256.027,89.2,249.33l7.667-0.107l-9.425-2.967
					c-2.517-4.958-3.885-10.497-3.885-16.185c0-3.718,0.585-7.495,1.813-11.218c4.905,1.618,9.225,4.195,12.817,7.458L98,237.063
					l2.83-8.087C109.067,238.2,112.287,251.447,108.135,264.035z"/>
			</g>
			<g>
				<polygon points="112.515,364.295 91.671,272.933 60.801,303.991 59.914,303.109 91.584,271.247 92.637,271.549 113.734,364.017 
									"/>
			</g>
			<g>
				<polygon points="112.5,364.187 107.517,264.199 84.811,219.133 85.927,218.571 108.693,263.754 108.759,264.005 
					113.749,364.125 				"/>
			</g>
			<g>
				<polygon points="113.743,364.245 112.506,364.067 127.044,263.292 128.103,262.938 166.338,300.942 165.457,301.829 
					128.104,264.701 				"/>
			</g>
		</g>
		<g>
			<path style="fill:#948BD8;" d="M142.124,333.312H84.125l4.34,39.584C89.844,385.475,100.47,395,113.125,395l0,0
				c12.654,0,23.281-9.525,24.66-22.104L142.124,333.312z"/>
		</g>
		<g>
			<defs>
				<path id="SVGID_1_" d="M142.124,333.312H84.125l4.34,39.584C89.844,385.475,100.47,395,113.125,395l0,0
					c12.654,0,23.281-9.525,24.66-22.104L142.124,333.312z"/>
			</defs>
			<clipPath id="SVGID_00000017515776580222302150000006572553614894688680_">
				<use xlink:href="#SVGID_1_"  style="overflow:visible;"/>
			</clipPath>
			<g style="clip-path:url(#SVGID_00000017515776580222302150000006572553614894688680_);">
				<path style="fill:#FFFFFF;" d="M110.367,416.068c-0.441,0-0.884-0.042-1.327-0.128c-3.833-0.741-6.069-4.557-6.523-7.79
					c-0.486-3.457,0.491-6.908,1.534-10.147c4.905-15.229,11.852-29.692,20.582-42.988c-1.35-3.44-3.518-6.395-6.928-7.996
					c-3.51-1.648-8.128-1.475-12.354,0.463c-4.233,1.941-7.674,5.307-10.199,8.021c-9.265,9.964-16.123,22.15-19.832,35.24
					l-1.203-0.341c3.763-13.28,10.72-25.642,20.12-35.75c2.603-2.799,6.16-6.274,10.593-8.307c4.624-2.121,9.511-2.288,13.407-0.458
					c2.493,1.171,5.282,3.453,7.229,7.872c7.911-11.829,17.243-22.712,27.812-32.366l0.843,0.923
					c-10.706,9.778-20.135,20.831-28.091,32.851c1.097,3.021,1.825,6.908,1.911,11.907c0.227,13.15-2.202,26.568-7.023,38.804
					c-1.161,2.947-2.754,5.54-4.486,7.302C114.557,415.086,112.484,416.068,110.367,416.068z M125.157,356.499
					c-8.425,12.982-15.144,27.07-19.917,41.888c-0.998,3.1-1.936,6.394-1.486,9.589c0.395,2.807,2.291,6.112,5.523,6.737
					c4.67,0.9,8.473-4.208,10.477-9.292c4.762-12.085,7.16-25.337,6.937-38.325C126.632,363.747,126.25,359.951,125.157,356.499z"/>
			</g>
		</g>
	</g>
</g>
<g id="DESIGNED_BY_FREEPIK">
	<g>
		<g id="XMLID_29_">
			<g id="XMLID_48_">
				<g id="XMLID_56_">
					<path style="fill:#102129;" d="M260.104,465.465c-0.432,0.443-0.803,0.931-1.108,1.453l-0.465-0.241
						c-0.067-0.298-0.349-0.503-0.659-0.466c-0.331,0.039-0.568,0.339-0.529,0.67c0.039,0.331,0.339,0.568,0.67,0.529
						c0.065-0.008,0.127-0.026,0.184-0.052l0.451,0.234c-0.251,0.554-0.433,1.139-0.539,1.744l0.747,0.132
						c0.23-1.306,0.85-2.507,1.792-3.473L260.104,465.465z"/>
				</g>
				<g id="XMLID_55_">
					<path style="fill:#102129;" d="M265.592,463.163c-0.171,0-0.341,0.006-0.51,0.017l-0.074-0.626
						c0.188-0.149,0.296-0.389,0.266-0.645c-0.046-0.393-0.402-0.674-0.795-0.628c-0.393,0.046-0.674,0.402-0.628,0.795
						c0.03,0.254,0.189,0.461,0.404,0.564l0.074,0.624c-0.714,0.116-1.403,0.332-2.06,0.646l0.327,0.684
						c0.934-0.447,1.942-0.673,2.995-0.673c0.496,0,0.993,0.053,1.475,0.158l0.161-0.741
						C266.692,463.222,266.142,463.163,265.592,463.163z"/>
				</g>
				<g id="XMLID_54_">
					<path style="fill:#102129;" d="M272.194,465.711c0.331-0.04,0.566-0.341,0.525-0.672c-0.04-0.331-0.341-0.566-0.672-0.526
						c-0.309,0.038-0.535,0.304-0.53,0.609l-0.416,0.363c-0.418-0.43-0.889-0.813-1.408-1.139l-0.404,0.641
						c1.134,0.715,2.021,1.726,2.563,2.925l0.691-0.313c-0.251-0.554-0.568-1.072-0.942-1.545l0.402-0.351
						C272.065,465.716,272.129,465.719,272.194,465.711z"/>
				</g>
				<g id="XMLID_53_">
					<path style="fill:#102129;" d="M265.044,473.372c-0.386,0.023-0.775,0.035-1.157,0.035c-0.88,0-1.733-0.061-2.478-0.179
						c-0.39-0.062-0.846-0.155-1.27-0.292c1.046,1.861,3.069,3.125,5.388,3.125c2.855,0,5.262-1.916,5.95-4.504
						c-0.682,0.449-1.505,0.825-2.459,1.123C267.839,473.047,266.463,473.286,265.044,473.372z"/>
				</g>
				<g id="XMLID_49_">
					<path style="fill:#102129;" d="M265.592,464.68c-3.352,0-6.08,2.666-6.08,5.943c0,0.426,0.046,0.849,0.137,1.261
						c0.674,0.483,2.706,0.89,5.348,0.731c2.879-0.173,5.297-0.957,6.672-2.159c-0.005-0.195-0.021-0.39-0.045-0.582
						C271.244,466.913,268.65,464.68,265.592,464.68z M263.432,471.194c-1.02,0-1.85-0.83-1.85-1.85c0-1.02,0.83-1.85,1.85-1.85
						c1.02,0,1.85,0.83,1.85,1.85C265.282,470.365,264.452,471.194,263.432,471.194z M268.17,470.286c-0.75,0-1.36-0.61-1.36-1.36
						s0.61-1.361,1.36-1.361c0.75,0,1.361,0.61,1.361,1.361S268.92,470.286,268.17,470.286z"/>
				</g>
			</g>
			<g id="XMLID_46_">
				<path style="fill:#102129;" d="M281.595,466.547c-0.295-0.116-0.806-0.309-1.382-0.237c-0.551,0.069-0.844,0.341-0.844,1.007
					v0.866h2.228v1.717h-2.228v5.455h-1.932v-5.455h-1.34v-1.717h1.34v-0.888c0-1.68,0.896-2.783,2.568-2.783
					c0.642,0,1.157,0.122,1.59,0.308L281.595,466.547z"/>
			</g>
			<g id="XMLID_44_">
				<path style="fill:#102129;" d="M286.298,469.879c-0.177-0.03-0.358-0.046-0.526-0.046c-0.896,0-1.51,0.548-1.51,1.614v3.908
					h-1.932v-7.172h1.873v0.785c0.451-0.673,1.14-0.977,2.021-0.977c0.414,0,0.848,0.128,1.094,0.337L286.298,469.879z"/>
			</g>
			<g id="XMLID_41_">
				<path style="fill:#102129;" d="M293.965,471.757c0,0.222-0.015,0.489-0.037,0.651h-5.085c0.207,1.036,0.933,1.488,1.843,1.488
					c0.622,0,1.295-0.252,1.813-0.688l1.132,1.243c-0.814,0.748-1.85,1.088-3.057,1.088c-2.198,0-3.723-1.495-3.723-3.753
					c0-2.258,1.48-3.797,3.627-3.797C292.544,467.99,293.958,469.522,293.965,471.757z M288.851,471.091h3.175
					c-0.177-0.918-0.733-1.436-1.562-1.436C289.554,469.655,289.021,470.203,288.851,471.091z"/>
			</g>
			<g id="XMLID_38_">
				<path style="fill:#102129;" d="M301.618,471.757c0,0.222-0.015,0.489-0.037,0.651h-5.085c0.207,1.036,0.932,1.488,1.843,1.488
					c0.622,0,1.295-0.252,1.814-0.688l1.132,1.243c-0.814,0.748-1.85,1.088-3.057,1.088c-2.198,0-3.723-1.495-3.723-3.753
					c0-2.258,1.48-3.797,3.627-3.797C300.197,467.99,301.611,469.522,301.618,471.757z M296.504,471.091h3.175
					c-0.178-0.918-0.733-1.436-1.562-1.436C297.207,469.655,296.674,470.203,296.504,471.091z"/>
			</g>
			<g id="XMLID_35_">
				<path style="fill:#102129;" d="M309.964,471.764c0,2.154-1.495,3.775-3.471,3.775c-0.962,0-1.643-0.378-2.109-0.933v3.708
					h-1.924v-10.133h1.887v0.792c0.466-0.585,1.155-0.984,2.139-0.984C308.469,467.99,309.964,469.61,309.964,471.764z
					 M304.287,471.764c0,1.132,0.747,1.976,1.843,1.976c1.14,0,1.85-0.881,1.85-1.976c0-1.095-0.71-1.976-1.85-1.976
					C305.035,469.788,304.287,470.632,304.287,471.764z"/>
			</g>
			<g id="XMLID_32_">
				<path style="fill:#102129;" d="M313.068,465.836c0,0.696-0.54,1.229-1.236,1.229c-0.696,0-1.229-0.533-1.229-1.229
					c0-0.696,0.533-1.243,1.229-1.243C312.527,464.592,313.068,465.14,313.068,465.836z M312.809,475.354h-1.932v-7.172h1.932
					V475.354z"/>
			</g>
			<g id="XMLID_30_">
				<path style="fill:#102129;" d="M316.032,470.736l2.702-2.554h2.368l-3.479,3.375l3.501,3.797h-2.376l-2.716-2.901v2.901H314.1
					v-10.658h1.932V470.736z"/>
			</g>
		</g>
		<g>
			<g>
				<path style="fill:#102129;" d="M184.412,475.289v-1.055c-0.527,0.718-1.391,1.23-2.387,1.23c-1.846,0-3.149-1.406-3.149-3.706
					c0-2.256,1.289-3.721,3.149-3.721c0.952,0,1.816,0.469,2.387,1.245v-3.765h1.099v9.77H184.412z M184.412,473.37v-3.208
					c-0.395-0.615-1.245-1.143-2.124-1.143c-1.421,0-2.27,1.172-2.27,2.739c0,1.567,0.85,2.724,2.27,2.724
					C183.168,474.483,184.017,473.986,184.412,473.37z"/>
			</g>
			<g>
				<path style="fill:#102129;" d="M186.932,471.744c0-2.051,1.465-3.706,3.486-3.706c2.139,0,3.398,1.67,3.398,3.794v0.279h-5.727
					c0.088,1.333,1.025,2.446,2.549,2.446c0.805,0,1.626-0.322,2.182-0.894l0.527,0.718c-0.703,0.703-1.655,1.084-2.812,1.084
					C188.44,475.465,186.932,473.956,186.932,471.744z M190.403,468.947c-1.509,0-2.256,1.274-2.314,2.358h4.643
					C192.718,470.25,192.015,468.947,190.403,468.947z"/>
			</g>
			<g>
				<path style="fill:#102129;" d="M194.607,474.351l0.571-0.791c0.469,0.542,1.362,1.011,2.329,1.011
					c1.084,0,1.67-0.513,1.67-1.216c0-1.714-4.38-0.659-4.38-3.281c0-1.098,0.952-2.036,2.636-2.036
					c1.201,0,2.051,0.454,2.622,1.026l-0.513,0.762c-0.424-0.513-1.201-0.894-2.109-0.894c-0.967,0-1.567,0.483-1.567,1.113
					c0,1.552,4.38,0.527,4.38,3.281c0,1.187-0.952,2.138-2.783,2.138C196.306,475.465,195.325,475.113,194.607,474.351z"/>
			</g>
			<g>
				<path style="fill:#102129;" d="M201.477,466.471c0-0.41,0.337-0.747,0.732-0.747c0.41,0,0.747,0.337,0.747,0.747
					c0,0.41-0.337,0.732-0.747,0.732C201.814,467.203,201.477,466.881,201.477,466.471z M201.667,475.289v-7.075h1.099v7.075
					H201.667z"/>
			</g>
			<g>
				<path style="fill:#102129;" d="M204.582,477.105l0.556-0.82c0.586,0.703,1.289,0.967,2.3,0.967c1.172,0,2.27-0.571,2.27-2.124
					v-1.011c-0.513,0.718-1.377,1.26-2.373,1.26c-1.845,0-3.149-1.377-3.149-3.662c0-2.27,1.289-3.677,3.149-3.677
					c0.952,0,1.802,0.469,2.373,1.245v-1.069h1.098v6.87c0,2.344-1.641,3.076-3.369,3.076
					C206.237,478.16,205.417,477.926,204.582,477.105z M209.709,473.253v-3.091c-0.381-0.615-1.23-1.143-2.109-1.143
					c-1.421,0-2.27,1.128-2.27,2.695c0,1.553,0.849,2.695,2.27,2.695C208.478,474.41,209.328,473.868,209.709,473.253z"/>
			</g>
			<g>
				<path style="fill:#102129;" d="M217.413,475.289v-4.629c0-1.245-0.63-1.641-1.582-1.641c-0.865,0-1.685,0.527-2.095,1.099v5.17
					h-1.099v-7.075h1.099v1.025c0.498-0.586,1.465-1.201,2.519-1.201c1.48,0,2.256,0.747,2.256,2.285v4.966H217.413z"/>
			</g>
			<g>
				<path style="fill:#102129;" d="M219.932,471.744c0-2.051,1.465-3.706,3.486-3.706c2.139,0,3.398,1.67,3.398,3.794v0.279h-5.727
					c0.088,1.333,1.025,2.446,2.549,2.446c0.806,0,1.626-0.322,2.183-0.894l0.527,0.718c-0.703,0.703-1.655,1.084-2.812,1.084
					C221.441,475.465,219.932,473.956,219.932,471.744z M223.404,468.947c-1.509,0-2.256,1.274-2.314,2.358h4.643
					C225.718,470.25,225.015,468.947,223.404,468.947z"/>
			</g>
			<g>
				<path style="fill:#102129;" d="M233.35,475.289v-1.055c-0.527,0.718-1.392,1.23-2.388,1.23c-1.846,0-3.149-1.406-3.149-3.706
					c0-2.256,1.289-3.721,3.149-3.721c0.952,0,1.817,0.469,2.388,1.245v-3.765h1.098v9.77H233.35z M233.35,473.37v-3.208
					c-0.396-0.615-1.245-1.143-2.124-1.143c-1.421,0-2.27,1.172-2.27,2.739c0,1.567,0.849,2.724,2.27,2.724
					C232.105,474.483,232.954,473.986,233.35,473.37z"/>
			</g>
			<g>
				<path style="fill:#102129;" d="M239.692,475.289v-9.77h1.098v3.765c0.572-0.776,1.421-1.245,2.388-1.245
					c1.845,0,3.149,1.465,3.149,3.721c0,2.299-1.304,3.706-3.149,3.706c-0.996,0-1.86-0.513-2.388-1.23v1.055H239.692z
					 M242.9,474.483c1.436,0,2.285-1.157,2.285-2.724c0-1.568-0.85-2.739-2.285-2.739c-0.864,0-1.728,0.527-2.109,1.143v3.208
					C241.171,473.986,242.036,474.483,242.9,474.483z"/>
			</g>
			<g>
				<path style="fill:#102129;" d="M247.528,477.061c0.161,0.073,0.425,0.117,0.601,0.117c0.483,0,0.805-0.161,1.055-0.747
					l0.469-1.069l-2.959-7.148h1.187l2.358,5.8l2.344-5.8h1.201l-3.545,8.51c-0.425,1.025-1.143,1.421-2.08,1.435
					c-0.234,0-0.601-0.044-0.806-0.103L247.528,477.061z"/>
			</g>
		</g>
	</g>
</g>
</svg>
